<mxfile host="Electron" agent="Mozilla/5.0 (Windows NT 10.0; Win64; x64) AppleWebKit/537.36 (KHTML, like Gecko) draw.io/26.0.9 Chrome/128.0.6613.186 Electron/32.2.5 Safari/537.36" version="26.0.9">
  <diagram id="C5RBs43oDa-KdzZeNtuy" name="Page-1">
    <mxGraphModel dx="792" dy="2356" grid="1" gridSize="10" guides="1" tooltips="1" connect="1" arrows="1" fold="1" page="1" pageScale="1" pageWidth="827" pageHeight="1169" math="0" shadow="0">
      <root>
        <mxCell id="WIyWlLk6GJQsqaUBKTNV-0" />
        <mxCell id="WIyWlLk6GJQsqaUBKTNV-1" parent="WIyWlLk6GJQsqaUBKTNV-0" />
        <mxCell id="zBA16Dfs5Mir4tPWxH-b-52" value="" style="edgeStyle=orthogonalEdgeStyle;rounded=0;orthogonalLoop=1;jettySize=auto;html=1;" edge="1" parent="WIyWlLk6GJQsqaUBKTNV-1" source="zBA16Dfs5Mir4tPWxH-b-1" target="zBA16Dfs5Mir4tPWxH-b-51">
          <mxGeometry relative="1" as="geometry" />
        </mxCell>
        <mxCell id="zBA16Dfs5Mir4tPWxH-b-1" value="Algus" style="ellipse;whiteSpace=wrap;html=1;" vertex="1" parent="WIyWlLk6GJQsqaUBKTNV-1">
          <mxGeometry x="360" y="-130" width="120" height="40" as="geometry" />
        </mxCell>
        <mxCell id="zBA16Dfs5Mir4tPWxH-b-4" style="edgeStyle=orthogonalEdgeStyle;rounded=0;orthogonalLoop=1;jettySize=auto;html=1;exitX=0.5;exitY=1;exitDx=0;exitDy=0;" edge="1" parent="WIyWlLk6GJQsqaUBKTNV-1" source="zBA16Dfs5Mir4tPWxH-b-1" target="zBA16Dfs5Mir4tPWxH-b-1">
          <mxGeometry relative="1" as="geometry" />
        </mxCell>
        <mxCell id="zBA16Dfs5Mir4tPWxH-b-8" style="edgeStyle=orthogonalEdgeStyle;rounded=0;orthogonalLoop=1;jettySize=auto;html=1;exitX=1;exitY=0.5;exitDx=0;exitDy=0;" edge="1" parent="WIyWlLk6GJQsqaUBKTNV-1" source="zBA16Dfs5Mir4tPWxH-b-5">
          <mxGeometry relative="1" as="geometry">
            <mxPoint x="420" y="110" as="targetPoint" />
          </mxGeometry>
        </mxCell>
        <mxCell id="zBA16Dfs5Mir4tPWxH-b-9" value="EI" style="edgeLabel;html=1;align=center;verticalAlign=middle;resizable=0;points=[];" vertex="1" connectable="0" parent="zBA16Dfs5Mir4tPWxH-b-8">
          <mxGeometry x="-0.4053" y="1" relative="1" as="geometry">
            <mxPoint as="offset" />
          </mxGeometry>
        </mxCell>
        <mxCell id="zBA16Dfs5Mir4tPWxH-b-11" value="" style="edgeStyle=orthogonalEdgeStyle;rounded=0;orthogonalLoop=1;jettySize=auto;html=1;" edge="1" parent="WIyWlLk6GJQsqaUBKTNV-1" source="zBA16Dfs5Mir4tPWxH-b-5" target="zBA16Dfs5Mir4tPWxH-b-10">
          <mxGeometry relative="1" as="geometry" />
        </mxCell>
        <mxCell id="zBA16Dfs5Mir4tPWxH-b-5" value="Kas teller on sisestanud ostja ostusumma" style="rhombus;whiteSpace=wrap;html=1;" vertex="1" parent="WIyWlLk6GJQsqaUBKTNV-1">
          <mxGeometry x="346" y="90" width="148" height="110" as="geometry" />
        </mxCell>
        <mxCell id="zBA16Dfs5Mir4tPWxH-b-13" value="" style="edgeStyle=orthogonalEdgeStyle;rounded=0;orthogonalLoop=1;jettySize=auto;html=1;" edge="1" parent="WIyWlLk6GJQsqaUBKTNV-1" source="zBA16Dfs5Mir4tPWxH-b-10" target="zBA16Dfs5Mir4tPWxH-b-12">
          <mxGeometry relative="1" as="geometry" />
        </mxCell>
        <mxCell id="zBA16Dfs5Mir4tPWxH-b-14" value="EI" style="edgeLabel;html=1;align=center;verticalAlign=middle;resizable=0;points=[];" vertex="1" connectable="0" parent="zBA16Dfs5Mir4tPWxH-b-13">
          <mxGeometry x="-0.45" relative="1" as="geometry">
            <mxPoint as="offset" />
          </mxGeometry>
        </mxCell>
        <mxCell id="zBA16Dfs5Mir4tPWxH-b-22" value="" style="edgeStyle=orthogonalEdgeStyle;rounded=0;orthogonalLoop=1;jettySize=auto;html=1;" edge="1" parent="WIyWlLk6GJQsqaUBKTNV-1" source="zBA16Dfs5Mir4tPWxH-b-10" target="zBA16Dfs5Mir4tPWxH-b-21">
          <mxGeometry relative="1" as="geometry" />
        </mxCell>
        <mxCell id="zBA16Dfs5Mir4tPWxH-b-23" value="JAH" style="edgeLabel;html=1;align=center;verticalAlign=middle;resizable=0;points=[];" vertex="1" connectable="0" parent="zBA16Dfs5Mir4tPWxH-b-22">
          <mxGeometry x="-0.0154" y="-2" relative="1" as="geometry">
            <mxPoint as="offset" />
          </mxGeometry>
        </mxCell>
        <mxCell id="zBA16Dfs5Mir4tPWxH-b-10" value="Kas ostja ostusumma on suurem kui 100?" style="rhombus;whiteSpace=wrap;html=1;" vertex="1" parent="WIyWlLk6GJQsqaUBKTNV-1">
          <mxGeometry x="335" y="240" width="170" height="80" as="geometry" />
        </mxCell>
        <mxCell id="zBA16Dfs5Mir4tPWxH-b-16" value="" style="edgeStyle=orthogonalEdgeStyle;rounded=0;orthogonalLoop=1;jettySize=auto;html=1;" edge="1" parent="WIyWlLk6GJQsqaUBKTNV-1" source="zBA16Dfs5Mir4tPWxH-b-12" target="zBA16Dfs5Mir4tPWxH-b-15">
          <mxGeometry relative="1" as="geometry" />
        </mxCell>
        <mxCell id="zBA16Dfs5Mir4tPWxH-b-19" value="EI" style="edgeLabel;html=1;align=center;verticalAlign=middle;resizable=0;points=[];" vertex="1" connectable="0" parent="zBA16Dfs5Mir4tPWxH-b-16">
          <mxGeometry x="-0.25" y="3" relative="1" as="geometry">
            <mxPoint x="-3" as="offset" />
          </mxGeometry>
        </mxCell>
        <mxCell id="zBA16Dfs5Mir4tPWxH-b-25" value="" style="edgeStyle=orthogonalEdgeStyle;rounded=0;orthogonalLoop=1;jettySize=auto;html=1;" edge="1" parent="WIyWlLk6GJQsqaUBKTNV-1" source="zBA16Dfs5Mir4tPWxH-b-12" target="zBA16Dfs5Mir4tPWxH-b-24">
          <mxGeometry relative="1" as="geometry" />
        </mxCell>
        <mxCell id="zBA16Dfs5Mir4tPWxH-b-30" value="JAH" style="edgeLabel;html=1;align=center;verticalAlign=middle;resizable=0;points=[];" vertex="1" connectable="0" parent="zBA16Dfs5Mir4tPWxH-b-25">
          <mxGeometry x="-0.1077" relative="1" as="geometry">
            <mxPoint as="offset" />
          </mxGeometry>
        </mxCell>
        <mxCell id="zBA16Dfs5Mir4tPWxH-b-12" value="Kas ostja ostusumma on suurem kui 50 ja väiksem kui 101?" style="rhombus;whiteSpace=wrap;html=1;" vertex="1" parent="WIyWlLk6GJQsqaUBKTNV-1">
          <mxGeometry x="335" y="350" width="170" height="80" as="geometry" />
        </mxCell>
        <mxCell id="zBA16Dfs5Mir4tPWxH-b-18" value="" style="edgeStyle=orthogonalEdgeStyle;rounded=0;orthogonalLoop=1;jettySize=auto;html=1;" edge="1" parent="WIyWlLk6GJQsqaUBKTNV-1" source="zBA16Dfs5Mir4tPWxH-b-15" target="zBA16Dfs5Mir4tPWxH-b-17">
          <mxGeometry relative="1" as="geometry" />
        </mxCell>
        <mxCell id="zBA16Dfs5Mir4tPWxH-b-20" value="EI" style="edgeLabel;html=1;align=center;verticalAlign=middle;resizable=0;points=[];" vertex="1" connectable="0" parent="zBA16Dfs5Mir4tPWxH-b-18">
          <mxGeometry x="-0.3" relative="1" as="geometry">
            <mxPoint as="offset" />
          </mxGeometry>
        </mxCell>
        <mxCell id="zBA16Dfs5Mir4tPWxH-b-29" value="" style="edgeStyle=orthogonalEdgeStyle;rounded=0;orthogonalLoop=1;jettySize=auto;html=1;" edge="1" parent="WIyWlLk6GJQsqaUBKTNV-1" source="zBA16Dfs5Mir4tPWxH-b-15" target="zBA16Dfs5Mir4tPWxH-b-28">
          <mxGeometry relative="1" as="geometry" />
        </mxCell>
        <mxCell id="zBA16Dfs5Mir4tPWxH-b-31" value="JAH" style="edgeLabel;html=1;align=center;verticalAlign=middle;resizable=0;points=[];" vertex="1" connectable="0" parent="zBA16Dfs5Mir4tPWxH-b-29">
          <mxGeometry x="-0.1077" relative="1" as="geometry">
            <mxPoint as="offset" />
          </mxGeometry>
        </mxCell>
        <mxCell id="zBA16Dfs5Mir4tPWxH-b-15" value="Kas ostja ostusumma on suurem kui 20 ja väiksem kui 51?" style="rhombus;whiteSpace=wrap;html=1;" vertex="1" parent="WIyWlLk6GJQsqaUBKTNV-1">
          <mxGeometry x="335" y="470" width="170" height="80" as="geometry" />
        </mxCell>
        <mxCell id="zBA16Dfs5Mir4tPWxH-b-33" value="" style="edgeStyle=orthogonalEdgeStyle;rounded=0;orthogonalLoop=1;jettySize=auto;html=1;" edge="1" parent="WIyWlLk6GJQsqaUBKTNV-1" source="zBA16Dfs5Mir4tPWxH-b-17" target="zBA16Dfs5Mir4tPWxH-b-32">
          <mxGeometry relative="1" as="geometry" />
        </mxCell>
        <mxCell id="zBA16Dfs5Mir4tPWxH-b-36" value="JAH" style="edgeLabel;html=1;align=center;verticalAlign=middle;resizable=0;points=[];" vertex="1" connectable="0" parent="zBA16Dfs5Mir4tPWxH-b-33">
          <mxGeometry x="-0.0154" y="-1" relative="1" as="geometry">
            <mxPoint as="offset" />
          </mxGeometry>
        </mxCell>
        <mxCell id="zBA16Dfs5Mir4tPWxH-b-35" value="" style="edgeStyle=orthogonalEdgeStyle;rounded=0;orthogonalLoop=1;jettySize=auto;html=1;" edge="1" parent="WIyWlLk6GJQsqaUBKTNV-1" source="zBA16Dfs5Mir4tPWxH-b-17" target="zBA16Dfs5Mir4tPWxH-b-34">
          <mxGeometry relative="1" as="geometry" />
        </mxCell>
        <mxCell id="zBA16Dfs5Mir4tPWxH-b-37" value="EI" style="edgeLabel;html=1;align=center;verticalAlign=middle;resizable=0;points=[];" vertex="1" connectable="0" parent="zBA16Dfs5Mir4tPWxH-b-35">
          <mxGeometry x="-0.25" y="1" relative="1" as="geometry">
            <mxPoint as="offset" />
          </mxGeometry>
        </mxCell>
        <mxCell id="zBA16Dfs5Mir4tPWxH-b-17" value="Kas ostja ostusumma on väiksem kui 21?" style="rhombus;whiteSpace=wrap;html=1;" vertex="1" parent="WIyWlLk6GJQsqaUBKTNV-1">
          <mxGeometry x="335" y="590" width="170" height="80" as="geometry" />
        </mxCell>
        <mxCell id="zBA16Dfs5Mir4tPWxH-b-50" style="edgeStyle=orthogonalEdgeStyle;rounded=0;orthogonalLoop=1;jettySize=auto;html=1;exitX=1;exitY=0.5;exitDx=0;exitDy=0;entryX=1;entryY=0.5;entryDx=0;entryDy=0;" edge="1" parent="WIyWlLk6GJQsqaUBKTNV-1" source="zBA16Dfs5Mir4tPWxH-b-21" target="zBA16Dfs5Mir4tPWxH-b-45">
          <mxGeometry relative="1" as="geometry">
            <Array as="points">
              <mxPoint x="750" y="280" />
              <mxPoint x="750" y="1040" />
            </Array>
          </mxGeometry>
        </mxCell>
        <mxCell id="zBA16Dfs5Mir4tPWxH-b-21" value="Kuvame kasutajale teksti &quot;Saad 20% allahindlust!&quot;" style="shape=parallelogram;perimeter=parallelogramPerimeter;whiteSpace=wrap;html=1;fixedSize=1;" vertex="1" parent="WIyWlLk6GJQsqaUBKTNV-1">
          <mxGeometry x="560" y="250" width="170" height="60" as="geometry" />
        </mxCell>
        <mxCell id="zBA16Dfs5Mir4tPWxH-b-49" style="edgeStyle=orthogonalEdgeStyle;rounded=0;orthogonalLoop=1;jettySize=auto;html=1;exitX=1;exitY=0.5;exitDx=0;exitDy=0;entryX=1;entryY=0.5;entryDx=0;entryDy=0;" edge="1" parent="WIyWlLk6GJQsqaUBKTNV-1" source="zBA16Dfs5Mir4tPWxH-b-24" target="zBA16Dfs5Mir4tPWxH-b-45">
          <mxGeometry relative="1" as="geometry">
            <Array as="points">
              <mxPoint x="750" y="390" />
              <mxPoint x="750" y="1040" />
            </Array>
          </mxGeometry>
        </mxCell>
        <mxCell id="zBA16Dfs5Mir4tPWxH-b-24" value="Kuvame kasutajale teksti &quot;saad 10% allahindlust!&quot;" style="shape=parallelogram;perimeter=parallelogramPerimeter;whiteSpace=wrap;html=1;fixedSize=1;" vertex="1" parent="WIyWlLk6GJQsqaUBKTNV-1">
          <mxGeometry x="560" y="360" width="170" height="60" as="geometry" />
        </mxCell>
        <mxCell id="zBA16Dfs5Mir4tPWxH-b-48" style="edgeStyle=orthogonalEdgeStyle;rounded=0;orthogonalLoop=1;jettySize=auto;html=1;exitX=1;exitY=0.5;exitDx=0;exitDy=0;entryX=1;entryY=0.5;entryDx=0;entryDy=0;" edge="1" parent="WIyWlLk6GJQsqaUBKTNV-1" source="zBA16Dfs5Mir4tPWxH-b-28" target="zBA16Dfs5Mir4tPWxH-b-45">
          <mxGeometry relative="1" as="geometry">
            <Array as="points">
              <mxPoint x="750" y="510" />
              <mxPoint x="750" y="1040" />
            </Array>
          </mxGeometry>
        </mxCell>
        <mxCell id="zBA16Dfs5Mir4tPWxH-b-28" value="Kuvame kasutajale teksti &quot;Saad 5% allahindlust!&quot;" style="shape=parallelogram;perimeter=parallelogramPerimeter;whiteSpace=wrap;html=1;fixedSize=1;" vertex="1" parent="WIyWlLk6GJQsqaUBKTNV-1">
          <mxGeometry x="560" y="480" width="170" height="60" as="geometry" />
        </mxCell>
        <mxCell id="zBA16Dfs5Mir4tPWxH-b-47" style="edgeStyle=orthogonalEdgeStyle;rounded=0;orthogonalLoop=1;jettySize=auto;html=1;exitX=1;exitY=0.5;exitDx=0;exitDy=0;entryX=1;entryY=0.5;entryDx=0;entryDy=0;" edge="1" parent="WIyWlLk6GJQsqaUBKTNV-1" source="zBA16Dfs5Mir4tPWxH-b-32" target="zBA16Dfs5Mir4tPWxH-b-45">
          <mxGeometry relative="1" as="geometry">
            <Array as="points">
              <mxPoint x="750" y="630" />
              <mxPoint x="750" y="1040" />
            </Array>
          </mxGeometry>
        </mxCell>
        <mxCell id="zBA16Dfs5Mir4tPWxH-b-32" value="Kuvame kasutajale teksti &quot;Allahindlust ei saa&quot;" style="shape=parallelogram;perimeter=parallelogramPerimeter;whiteSpace=wrap;html=1;fixedSize=1;" vertex="1" parent="WIyWlLk6GJQsqaUBKTNV-1">
          <mxGeometry x="560" y="600" width="170" height="60" as="geometry" />
        </mxCell>
        <mxCell id="zBA16Dfs5Mir4tPWxH-b-38" style="edgeStyle=orthogonalEdgeStyle;rounded=0;orthogonalLoop=1;jettySize=auto;html=1;exitX=0;exitY=0.5;exitDx=0;exitDy=0;entryX=0.5;entryY=0;entryDx=0;entryDy=0;" edge="1" parent="WIyWlLk6GJQsqaUBKTNV-1" source="zBA16Dfs5Mir4tPWxH-b-34" target="zBA16Dfs5Mir4tPWxH-b-5">
          <mxGeometry relative="1" as="geometry">
            <Array as="points">
              <mxPoint x="315" y="750" />
              <mxPoint x="315" y="90" />
            </Array>
          </mxGeometry>
        </mxCell>
        <mxCell id="zBA16Dfs5Mir4tPWxH-b-39" value="EI" style="edgeLabel;html=1;align=center;verticalAlign=middle;resizable=0;points=[];" vertex="1" connectable="0" parent="zBA16Dfs5Mir4tPWxH-b-38">
          <mxGeometry x="-0.8065" y="-3" relative="1" as="geometry">
            <mxPoint as="offset" />
          </mxGeometry>
        </mxCell>
        <mxCell id="zBA16Dfs5Mir4tPWxH-b-41" value="" style="edgeStyle=orthogonalEdgeStyle;rounded=0;orthogonalLoop=1;jettySize=auto;html=1;" edge="1" parent="WIyWlLk6GJQsqaUBKTNV-1" source="zBA16Dfs5Mir4tPWxH-b-34" target="zBA16Dfs5Mir4tPWxH-b-40">
          <mxGeometry relative="1" as="geometry" />
        </mxCell>
        <mxCell id="zBA16Dfs5Mir4tPWxH-b-42" value="JAH" style="edgeLabel;html=1;align=center;verticalAlign=middle;resizable=0;points=[];" vertex="1" connectable="0" parent="zBA16Dfs5Mir4tPWxH-b-41">
          <mxGeometry x="-0.25" relative="1" as="geometry">
            <mxPoint as="offset" />
          </mxGeometry>
        </mxCell>
        <mxCell id="zBA16Dfs5Mir4tPWxH-b-34" value="Kas ostja ostusumma on väiksem kui 1?" style="rhombus;whiteSpace=wrap;html=1;" vertex="1" parent="WIyWlLk6GJQsqaUBKTNV-1">
          <mxGeometry x="335" y="710" width="170" height="80" as="geometry" />
        </mxCell>
        <mxCell id="zBA16Dfs5Mir4tPWxH-b-44" value="" style="edgeStyle=orthogonalEdgeStyle;rounded=0;orthogonalLoop=1;jettySize=auto;html=1;" edge="1" parent="WIyWlLk6GJQsqaUBKTNV-1" source="zBA16Dfs5Mir4tPWxH-b-40" target="zBA16Dfs5Mir4tPWxH-b-43">
          <mxGeometry relative="1" as="geometry" />
        </mxCell>
        <mxCell id="zBA16Dfs5Mir4tPWxH-b-40" value="Veaolek, ostusumma ei saa olla 0 ega sellest väiksem" style="whiteSpace=wrap;html=1;" vertex="1" parent="WIyWlLk6GJQsqaUBKTNV-1">
          <mxGeometry x="360" y="830" width="120" height="60" as="geometry" />
        </mxCell>
        <mxCell id="zBA16Dfs5Mir4tPWxH-b-46" value="" style="edgeStyle=orthogonalEdgeStyle;rounded=0;orthogonalLoop=1;jettySize=auto;html=1;" edge="1" parent="WIyWlLk6GJQsqaUBKTNV-1" source="zBA16Dfs5Mir4tPWxH-b-43" target="zBA16Dfs5Mir4tPWxH-b-45">
          <mxGeometry relative="1" as="geometry" />
        </mxCell>
        <mxCell id="zBA16Dfs5Mir4tPWxH-b-43" value="Kuva tekst &quot;Sisestatud vigane arv&quot;" style="shape=parallelogram;perimeter=parallelogramPerimeter;whiteSpace=wrap;html=1;fixedSize=1;" vertex="1" parent="WIyWlLk6GJQsqaUBKTNV-1">
          <mxGeometry x="360" y="930" width="120" height="60" as="geometry" />
        </mxCell>
        <mxCell id="zBA16Dfs5Mir4tPWxH-b-45" value="Lõpp" style="ellipse;whiteSpace=wrap;html=1;" vertex="1" parent="WIyWlLk6GJQsqaUBKTNV-1">
          <mxGeometry x="380" y="1020" width="80" height="40" as="geometry" />
        </mxCell>
        <mxCell id="zBA16Dfs5Mir4tPWxH-b-53" value="" style="edgeStyle=orthogonalEdgeStyle;rounded=0;orthogonalLoop=1;jettySize=auto;html=1;" edge="1" parent="WIyWlLk6GJQsqaUBKTNV-1" source="zBA16Dfs5Mir4tPWxH-b-51" target="zBA16Dfs5Mir4tPWxH-b-5">
          <mxGeometry relative="1" as="geometry" />
        </mxCell>
        <mxCell id="zBA16Dfs5Mir4tPWxH-b-51" value="Kuva kasutajale tekst &quot;Sisesta ostusumma&quot;" style="shape=parallelogram;perimeter=parallelogramPerimeter;whiteSpace=wrap;html=1;fixedSize=1;" vertex="1" parent="WIyWlLk6GJQsqaUBKTNV-1">
          <mxGeometry x="360" y="-30" width="120" height="60" as="geometry" />
        </mxCell>
      </root>
    </mxGraphModel>
  </diagram>
</mxfile>
